<svg width="146" height="56" viewBox="0 0 146 56" fill="none" xmlns="http://www.w3.org/2000/svg">
<path d="M41.2449 22.5666C41.0934 22.6827 38.4173 24.172 38.4173 27.4836C38.4173 31.314 41.8225 32.669 41.9244 32.7026C41.9087 32.7852 41.3834 34.5584 40.129 36.3652C39.0105 37.9551 37.8423 39.5425 36.0652 39.5425C34.2881 39.5425 33.8308 38.523 31.7793 38.523C29.7801 38.523 29.0692 39.5761 27.4437 39.5761C25.8182 39.5761 24.684 38.1048 23.3799 36.2981C21.8694 34.1764 20.6489 30.8803 20.6489 27.752C20.6489 22.7343 23.9522 20.0732 27.2033 20.0732C28.9307 20.0732 30.3707 21.1934 31.4552 21.1934C32.4875 21.1934 34.0974 20.0061 36.0626 20.0061C36.8074 20.0061 39.4835 20.0732 41.2449 22.5666ZM35.1296 17.8819C35.9424 16.9294 36.5173 15.6079 36.5173 14.2864C36.5173 14.1031 36.5017 13.9173 36.4677 13.7676C35.1453 13.8166 33.5721 14.6374 32.6234 15.7241C31.8786 16.5603 31.1834 17.8819 31.1834 19.2215C31.1834 19.4228 31.2174 19.6241 31.2331 19.6886C31.3167 19.7041 31.4526 19.7222 31.5885 19.7222C32.775 19.7222 34.2672 18.9375 35.1296 17.8819Z" fill="#FEFEFE"/>
<path d="M58.8359 17.3798C59.2848 17.3798 59.6784 17.4659 60.0166 17.6381C60.361 17.8041 60.647 18.0378 60.8745 18.3392C61.1021 18.6405 61.2712 18.988 61.3819 19.3816C61.4987 19.769 61.5572 20.178 61.5572 20.6085C61.5572 21.1989 61.4557 21.7401 61.2528 22.232C61.0498 22.7179 60.7485 23.1084 60.3487 23.4036C59.949 23.6926 59.4447 23.8372 58.8359 23.8372H56.5297C56.4251 23.8372 56.3359 23.8003 56.2621 23.7265C56.1945 23.6527 56.1607 23.5635 56.1607 23.4589V17.7488C56.1607 17.6442 56.1945 17.5581 56.2621 17.4905C56.3359 17.4167 56.4251 17.3798 56.5297 17.3798H58.8359ZM58.7436 23.1176C59.2171 23.1176 59.6015 23.0039 59.8967 22.7763C60.1981 22.5488 60.4164 22.2443 60.5517 21.863C60.6931 21.4818 60.7638 21.0636 60.7638 20.6085C60.7638 20.2764 60.7239 19.9597 60.6439 19.6583C60.5701 19.3508 60.4502 19.0802 60.2841 18.8465C60.1243 18.6128 59.9152 18.4283 59.6569 18.293C59.4047 18.1578 59.1003 18.0901 58.7436 18.0901H56.8525L56.9263 18.0163V23.2099L56.871 23.1176H58.7436ZM67.0698 21.4387C67.0698 21.9184 66.9622 22.3458 66.7469 22.721C66.5378 23.0961 66.2519 23.3913 65.889 23.6065C65.5323 23.8218 65.1295 23.9294 64.6806 23.9294C64.2316 23.9294 63.8257 23.8218 63.4629 23.6065C63.1 23.3913 62.811 23.0961 62.5958 22.721C62.3867 22.3458 62.2821 21.9184 62.2821 21.4387C62.2821 20.959 62.3867 20.5316 62.5958 20.1565C62.811 19.7813 63.1 19.4861 63.4629 19.2709C63.8257 19.0556 64.2316 18.948 64.6806 18.948C65.1295 18.948 65.5323 19.0556 65.889 19.2709C66.2519 19.4861 66.5378 19.7813 66.7469 20.1565C66.9622 20.5316 67.0698 20.959 67.0698 21.4387ZM66.3318 21.4387C66.3318 21.082 66.258 20.7684 66.1104 20.4978C65.969 20.2272 65.7722 20.015 65.52 19.8613C65.274 19.7075 64.9942 19.6306 64.6806 19.6306C64.3669 19.6306 64.084 19.7075 63.8319 19.8613C63.5859 20.015 63.3891 20.2272 63.2415 20.4978C63.0939 20.7684 63.0201 21.082 63.0201 21.4387C63.0201 21.7893 63.0939 22.0998 63.2415 22.3704C63.3891 22.641 63.5859 22.8563 63.8319 23.0162C64.084 23.1699 64.3669 23.2468 64.6806 23.2468C64.9942 23.2468 65.274 23.1699 65.52 23.0162C65.7722 22.8563 65.969 22.641 66.1104 22.3704C66.258 22.0998 66.3318 21.7893 66.3318 21.4387ZM73.6224 18.9849C73.7208 18.9849 73.8038 19.0187 73.8715 19.0864C73.9453 19.154 73.9822 19.2432 73.9822 19.3539C73.9822 19.3785 73.9791 19.4062 73.973 19.4369C73.973 19.4615 73.9668 19.4861 73.9545 19.5107L72.5339 23.5973C72.5032 23.6773 72.4509 23.7388 72.3771 23.7818C72.3094 23.8249 72.2356 23.8433 72.1557 23.8372C72.0142 23.831 71.9066 23.7511 71.8328 23.5973L70.6705 20.6823L70.855 20.7099L69.8034 23.5973C69.7357 23.7511 69.6281 23.831 69.4805 23.8372C69.4005 23.8433 69.3237 23.8249 69.2499 23.7818C69.1761 23.7388 69.1269 23.6773 69.1023 23.5973L67.654 19.5107C67.6355 19.4554 67.6263 19.4031 67.6263 19.3539C67.6263 19.2555 67.6601 19.1694 67.7278 19.0956C67.7954 19.0218 67.8877 18.9849 68.0045 18.9849C68.0783 18.9849 68.146 19.0034 68.2075 19.0403C68.269 19.0772 68.312 19.1356 68.3366 19.2155L69.582 22.8501L69.3882 22.8409L70.4675 20.0734C70.529 19.9197 70.6428 19.8428 70.8089 19.8428C70.895 19.8428 70.9626 19.8643 71.0118 19.9074C71.0672 19.9443 71.1071 19.9996 71.1317 20.0734L72.2572 22.8409L72.0265 22.8593L73.2719 19.2155C73.3272 19.0618 73.4441 18.9849 73.6224 18.9849ZM77.1632 18.948C77.5814 18.948 77.9104 19.0341 78.1503 19.2063C78.3901 19.3785 78.5593 19.6091 78.6577 19.8982C78.7622 20.1872 78.8145 20.5101 78.8145 20.8668V23.4589C78.8145 23.5635 78.7776 23.6527 78.7038 23.7265C78.6361 23.8003 78.55 23.8372 78.4455 23.8372C78.3409 23.8372 78.2518 23.8003 78.178 23.7265C78.1103 23.6527 78.0765 23.5635 78.0765 23.4589V20.8852C78.0765 20.6515 78.0396 20.4424 77.9658 20.2579C77.8981 20.0673 77.7813 19.9166 77.6153 19.8059C77.4554 19.6891 77.234 19.6306 76.9511 19.6306C76.6928 19.6306 76.456 19.6891 76.2408 19.8059C76.0255 19.9166 75.8533 20.0673 75.7242 20.2579C75.595 20.4424 75.5304 20.6515 75.5304 20.8852V23.4589C75.5304 23.5635 75.4935 23.6527 75.4197 23.7265C75.3521 23.8003 75.266 23.8372 75.1615 23.8372C75.0569 23.8372 74.9677 23.8003 74.8939 23.7265C74.8263 23.6527 74.7925 23.5635 74.7925 23.4589V19.4369C74.7925 19.3324 74.8263 19.2463 74.8939 19.1786C74.9677 19.1048 75.0569 19.0679 75.1615 19.0679C75.2722 19.0679 75.3613 19.1048 75.429 19.1786C75.4966 19.2463 75.5304 19.3324 75.5304 19.4369V20.0919L75.346 20.2948C75.3767 20.1349 75.4474 19.975 75.5581 19.8151C75.6688 19.6491 75.8072 19.5015 75.9732 19.3724C76.1393 19.2432 76.3238 19.1417 76.5267 19.0679C76.7297 18.988 76.9418 18.948 77.1632 18.948ZM80.8069 23.4589C80.8069 23.5635 80.77 23.6527 80.6962 23.7265C80.6224 23.8003 80.5332 23.8372 80.4287 23.8372C80.3241 23.8372 80.238 23.8003 80.1704 23.7265C80.1027 23.6527 80.0689 23.5635 80.0689 23.4589V17.3798C80.0689 17.2752 80.1027 17.1891 80.1704 17.1215C80.2442 17.0477 80.3334 17.0108 80.4379 17.0108C80.5486 17.0108 80.6378 17.0477 80.7054 17.1215C80.7731 17.1891 80.8069 17.2752 80.8069 17.3798V23.4589ZM86.4931 21.4387C86.4931 21.9184 86.3854 22.3458 86.1702 22.721C85.9611 23.0961 85.6751 23.3913 85.3123 23.6065C84.9556 23.8218 84.5528 23.9294 84.1038 23.9294C83.6549 23.9294 83.249 23.8218 82.8862 23.6065C82.5233 23.3913 82.2343 23.0961 82.019 22.721C81.8099 22.3458 81.7054 21.9184 81.7054 21.4387C81.7054 20.959 81.8099 20.5316 82.019 20.1565C82.2343 19.7813 82.5233 19.4861 82.8862 19.2709C83.249 19.0556 83.6549 18.948 84.1038 18.948C84.5528 18.948 84.9556 19.0556 85.3123 19.2709C85.6751 19.4861 85.9611 19.7813 86.1702 20.1565C86.3854 20.5316 86.4931 20.959 86.4931 21.4387ZM85.7551 21.4387C85.7551 21.082 85.6813 20.7684 85.5337 20.4978C85.3922 20.2272 85.1954 20.015 84.9433 19.8613C84.6973 19.7075 84.4175 19.6306 84.1038 19.6306C83.7902 19.6306 83.5073 19.7075 83.2551 19.8613C83.0091 20.015 82.8124 20.2272 82.6648 20.4978C82.5172 20.7684 82.4434 21.082 82.4434 21.4387C82.4434 21.7893 82.5172 22.0998 82.6648 22.3704C82.8124 22.641 83.0091 22.8563 83.2551 23.0162C83.5073 23.1699 83.7902 23.2468 84.1038 23.2468C84.4175 23.2468 84.6973 23.1699 84.9433 23.0162C85.1954 22.8563 85.3922 22.641 85.5337 22.3704C85.6813 22.0998 85.7551 21.7893 85.7551 21.4387ZM91.3483 19.0218C91.4529 19.0218 91.539 19.0587 91.6066 19.1325C91.6804 19.2002 91.7173 19.2863 91.7173 19.3908V23.4589C91.7173 23.5635 91.6804 23.6527 91.6066 23.7265C91.539 23.8003 91.4529 23.8372 91.3483 23.8372C91.2376 23.8372 91.1485 23.8003 91.0808 23.7265C91.0132 23.6527 90.9793 23.5635 90.9793 23.4589V22.5826L91.1546 22.5641C91.1546 22.6994 91.1085 22.847 91.0162 23.0069C90.924 23.1668 90.7979 23.3175 90.638 23.4589C90.4781 23.5942 90.2875 23.708 90.0661 23.8003C89.8508 23.8864 89.6171 23.9294 89.365 23.9294C88.9468 23.9294 88.5717 23.8218 88.2396 23.6065C87.9075 23.3851 87.643 23.0869 87.4462 22.7117C87.2556 22.3366 87.1603 21.9092 87.1603 21.4295C87.1603 20.9436 87.2556 20.5162 87.4462 20.1472C87.643 19.7721 87.9075 19.48 88.2396 19.2709C88.5717 19.0556 88.9407 18.948 89.3465 18.948C89.611 18.948 89.857 18.9911 90.0845 19.0772C90.3121 19.1633 90.5089 19.2801 90.6749 19.4277C90.8471 19.5753 90.9793 19.7383 91.0716 19.9166C91.17 20.095 91.2192 20.2733 91.2192 20.4517L90.9793 20.3963V19.3908C90.9793 19.2863 91.0132 19.2002 91.0808 19.1325C91.1485 19.0587 91.2376 19.0218 91.3483 19.0218ZM89.448 23.2468C89.7555 23.2468 90.0261 23.1668 90.2598 23.0069C90.4996 22.847 90.6841 22.6318 90.8133 22.3612C90.9486 22.0844 91.0162 21.7739 91.0162 21.4295C91.0162 21.0912 90.9486 20.7868 90.8133 20.5162C90.6841 20.2395 90.4996 20.0242 90.2598 19.8705C90.0261 19.7106 89.7555 19.6306 89.448 19.6306C89.1467 19.6306 88.8761 19.7075 88.6362 19.8613C88.4025 20.015 88.218 20.2272 88.0827 20.4978C87.9474 20.7684 87.8798 21.0789 87.8798 21.4295C87.8798 21.7739 87.9444 22.0844 88.0735 22.3612C88.2088 22.6318 88.3933 22.847 88.627 23.0069C88.8669 23.1668 89.1405 23.2468 89.448 23.2468ZM96.8302 17.0108C96.9348 17.0108 97.0209 17.0477 97.0885 17.1215C97.1623 17.1891 97.1992 17.2752 97.1992 17.3798V23.4589C97.1992 23.5635 97.1623 23.6527 97.0885 23.7265C97.0209 23.8003 96.9348 23.8372 96.8302 23.8372C96.7195 23.8372 96.6304 23.8003 96.5627 23.7265C96.4951 23.6527 96.4612 23.5635 96.4612 23.4589V22.5826L96.6365 22.518C96.6365 22.6656 96.5904 22.8224 96.4981 22.9885C96.4059 23.1484 96.2798 23.299 96.1199 23.4405C95.96 23.5819 95.7694 23.6988 95.548 23.791C95.3327 23.8833 95.099 23.9294 94.8469 23.9294C94.4349 23.9294 94.0597 23.8218 93.7215 23.6065C93.3894 23.3913 93.1249 23.0961 92.9281 22.721C92.7375 22.3458 92.6422 21.9184 92.6422 21.4387C92.6422 20.9529 92.7375 20.5224 92.9281 20.1472C93.1249 19.7721 93.3894 19.48 93.7215 19.2709C94.0536 19.0556 94.4226 18.948 94.8285 18.948C95.0867 18.948 95.3297 18.9911 95.5572 19.0772C95.7848 19.1633 95.9816 19.2801 96.1476 19.4277C96.3198 19.5753 96.4551 19.7383 96.5535 19.9166C96.6519 20.095 96.7011 20.2733 96.7011 20.4517L96.4612 20.3963V17.3798C96.4612 17.2752 96.4951 17.1891 96.5627 17.1215C96.6304 17.0477 96.7195 17.0108 96.8302 17.0108ZM94.9299 23.2468C95.2374 23.2468 95.508 23.1699 95.7417 23.0162C95.9816 22.8563 96.1661 22.641 96.2952 22.3704C96.4305 22.0937 96.4981 21.7831 96.4981 21.4387C96.4981 21.0882 96.4305 20.7776 96.2952 20.507C96.1661 20.2364 95.9816 20.0242 95.7417 19.8705C95.508 19.7106 95.2374 19.6306 94.9299 19.6306C94.6286 19.6306 94.358 19.7106 94.1181 19.8705C93.8844 20.0242 93.7 20.2364 93.5647 20.507C93.4294 20.7776 93.3617 21.0882 93.3617 21.4387C93.3617 21.777 93.4294 22.0844 93.5647 22.3612C93.7 22.6318 93.8844 22.847 94.1181 23.0069C94.358 23.1668 94.6286 23.2468 94.9299 23.2468ZM105.268 21.4387C105.268 21.9184 105.16 22.3458 104.945 22.721C104.736 23.0961 104.45 23.3913 104.087 23.6065C103.73 23.8218 103.327 23.9294 102.878 23.9294C102.43 23.9294 102.024 23.8218 101.661 23.6065C101.298 23.3913 101.009 23.0961 100.794 22.721C100.585 22.3458 100.48 21.9184 100.48 21.4387C100.48 20.959 100.585 20.5316 100.794 20.1565C101.009 19.7813 101.298 19.4861 101.661 19.2709C102.024 19.0556 102.43 18.948 102.878 18.948C103.327 18.948 103.73 19.0556 104.087 19.2709C104.45 19.4861 104.736 19.7813 104.945 20.1565C105.16 20.5316 105.268 20.959 105.268 21.4387ZM104.53 21.4387C104.53 21.082 104.456 20.7684 104.308 20.4978C104.167 20.2272 103.97 20.015 103.718 19.8613C103.472 19.7075 103.192 19.6306 102.878 19.6306C102.565 19.6306 102.282 19.7075 102.03 19.8613C101.784 20.015 101.587 20.2272 101.439 20.4978C101.292 20.7684 101.218 21.082 101.218 21.4387C101.218 21.7893 101.292 22.0998 101.439 22.3704C101.587 22.641 101.784 22.8563 102.03 23.0162C102.282 23.1699 102.565 23.2468 102.878 23.2468C103.192 23.2468 103.472 23.1699 103.718 23.0162C103.97 22.8563 104.167 22.641 104.308 22.3704C104.456 22.0998 104.53 21.7893 104.53 21.4387ZM108.564 18.948C108.982 18.948 109.311 19.0341 109.551 19.2063C109.791 19.3785 109.96 19.6091 110.058 19.8982C110.163 20.1872 110.215 20.5101 110.215 20.8668V23.4589C110.215 23.5635 110.178 23.6527 110.105 23.7265C110.037 23.8003 109.951 23.8372 109.846 23.8372C109.742 23.8372 109.653 23.8003 109.579 23.7265C109.511 23.6527 109.477 23.5635 109.477 23.4589V20.8852C109.477 20.6515 109.44 20.4424 109.367 20.2579C109.299 20.0673 109.182 19.9166 109.016 19.8059C108.856 19.6891 108.635 19.6306 108.352 19.6306C108.094 19.6306 107.857 19.6891 107.641 19.8059C107.426 19.9166 107.254 20.0673 107.125 20.2579C106.996 20.4424 106.931 20.6515 106.931 20.8852V23.4589C106.931 23.5635 106.894 23.6527 106.82 23.7265C106.753 23.8003 106.667 23.8372 106.562 23.8372C106.458 23.8372 106.368 23.8003 106.295 23.7265C106.227 23.6527 106.193 23.5635 106.193 23.4589V19.4369C106.193 19.3324 106.227 19.2463 106.295 19.1786C106.368 19.1048 106.458 19.0679 106.562 19.0679C106.673 19.0679 106.762 19.1048 106.83 19.1786C106.897 19.2463 106.931 19.3324 106.931 19.4369V20.0919L106.747 20.2948C106.777 20.1349 106.848 19.975 106.959 19.8151C107.07 19.6491 107.208 19.5015 107.374 19.3724C107.54 19.2432 107.725 19.1417 107.927 19.0679C108.13 18.988 108.343 18.948 108.564 18.948ZM113.567 19.0956H115.735C115.834 19.0956 115.913 19.1294 115.975 19.1971C116.043 19.2647 116.076 19.3447 116.076 19.4369C116.076 19.5353 116.043 19.6183 115.975 19.686C115.913 19.7475 115.834 19.7782 115.735 19.7782H113.567C113.475 19.7782 113.395 19.7444 113.327 19.6768C113.26 19.6091 113.226 19.5261 113.226 19.4277C113.226 19.3355 113.26 19.2586 113.327 19.1971C113.395 19.1294 113.475 19.0956 113.567 19.0956ZM114.536 17.841C114.64 17.841 114.727 17.8779 114.794 17.9517C114.862 18.0194 114.896 18.1055 114.896 18.21V22.6656C114.896 22.8132 114.917 22.9239 114.96 22.9977C115.003 23.0715 115.059 23.1238 115.126 23.1545C115.2 23.1791 115.271 23.1914 115.338 23.1914C115.4 23.1914 115.452 23.1822 115.495 23.1637C115.544 23.1391 115.6 23.1268 115.661 23.1268C115.723 23.1268 115.778 23.1576 115.827 23.2191C115.883 23.2744 115.91 23.3482 115.91 23.4405C115.91 23.5512 115.846 23.6465 115.717 23.7265C115.588 23.8003 115.443 23.8372 115.283 23.8372C115.197 23.8372 115.089 23.831 114.96 23.8187C114.837 23.8064 114.714 23.7664 114.591 23.6988C114.468 23.6311 114.364 23.5204 114.278 23.3667C114.198 23.2068 114.158 22.9854 114.158 22.7025V18.21C114.158 18.1055 114.195 18.0194 114.268 17.9517C114.342 17.8779 114.431 17.841 114.536 17.841ZM119.225 18.9941C119.631 18.9941 119.95 19.0833 120.184 19.2617C120.424 19.4339 120.593 19.6675 120.691 19.9627C120.796 20.2518 120.848 20.5747 120.848 20.9313V23.4589C120.848 23.5635 120.811 23.6527 120.738 23.7265C120.67 23.8003 120.584 23.8372 120.479 23.8372C120.375 23.8372 120.286 23.8003 120.212 23.7265C120.144 23.6527 120.11 23.5635 120.11 23.4589V20.9313C120.11 20.6976 120.076 20.4886 120.009 20.3041C119.941 20.1134 119.827 19.9627 119.667 19.852C119.514 19.7352 119.302 19.6768 119.031 19.6768C118.779 19.6768 118.548 19.7352 118.339 19.852C118.13 19.9627 117.964 20.1134 117.841 20.3041C117.718 20.4886 117.656 20.6976 117.656 20.9313V23.4589C117.656 23.5635 117.62 23.6527 117.546 23.7265C117.478 23.8003 117.392 23.8372 117.287 23.8372C117.183 23.8372 117.094 23.8003 117.02 23.7265C116.952 23.6527 116.918 23.5635 116.918 23.4589V17.3798C116.918 17.2752 116.952 17.1891 117.02 17.1215C117.094 17.0477 117.183 17.0108 117.287 17.0108C117.398 17.0108 117.487 17.0477 117.555 17.1215C117.623 17.1891 117.656 17.2752 117.656 17.3798V20.138L117.472 20.341C117.503 20.1811 117.57 20.0212 117.675 19.8613C117.779 19.6952 117.912 19.5476 118.072 19.4185C118.231 19.2893 118.41 19.1879 118.607 19.1141C118.803 19.0341 119.009 18.9941 119.225 18.9941ZM124.236 23.9294C123.744 23.9294 123.313 23.8249 122.944 23.6158C122.575 23.4067 122.286 23.1207 122.077 22.7579C121.874 22.3889 121.773 21.9645 121.773 21.4848C121.773 20.9498 121.877 20.4947 122.086 20.1196C122.302 19.7383 122.578 19.4492 122.917 19.2524C123.261 19.0495 123.624 18.948 124.005 18.948C124.288 18.948 124.562 19.0003 124.826 19.1048C125.091 19.2094 125.324 19.3631 125.527 19.5661C125.73 19.7629 125.893 20.0027 126.016 20.2856C126.139 20.5624 126.204 20.8729 126.21 21.2173C126.21 21.3157 126.173 21.3987 126.099 21.4664C126.025 21.534 125.939 21.5679 125.841 21.5679H122.197L122.031 20.9313H125.583L125.435 21.0605V20.8575C125.41 20.6054 125.324 20.3902 125.177 20.2118C125.035 20.0273 124.86 19.8859 124.651 19.7875C124.448 19.6891 124.233 19.6399 124.005 19.6399C123.821 19.6399 123.636 19.6737 123.452 19.7413C123.273 19.8028 123.11 19.9074 122.963 20.055C122.821 20.1964 122.704 20.3809 122.612 20.6085C122.526 20.836 122.483 21.1097 122.483 21.4295C122.483 21.7862 122.554 22.0998 122.695 22.3704C122.843 22.641 123.046 22.8563 123.304 23.0162C123.562 23.1699 123.864 23.2468 124.208 23.2468C124.423 23.2468 124.611 23.2191 124.771 23.1637C124.931 23.1084 125.069 23.0407 125.186 22.9608C125.303 22.8747 125.401 22.7886 125.481 22.7025C125.561 22.6472 125.638 22.6195 125.712 22.6195C125.804 22.6195 125.878 22.6502 125.933 22.7117C125.995 22.7732 126.025 22.847 126.025 22.9331C126.025 23.0377 125.976 23.1299 125.878 23.2099C125.706 23.4005 125.472 23.5696 125.177 23.7172C124.882 23.8587 124.568 23.9294 124.236 23.9294Z" fill="white"/>
<path d="M60.2491 31.8226L57.061 39.3206C56.9921 39.5075 56.8839 39.6551 56.7363 39.7634C56.5985 39.8618 56.446 39.911 56.2787 39.911C56.0131 39.911 55.8163 39.8372 55.6883 39.6896C55.5604 39.542 55.4965 39.3599 55.4965 39.1435C55.4965 39.0549 55.5112 38.9614 55.5408 38.863L59.2159 30.0367C59.2946 29.8399 59.4127 29.6874 59.5701 29.5792C59.7374 29.4709 59.9145 29.4267 60.1015 29.4463C60.2786 29.4463 60.441 29.5005 60.5886 29.6087C60.746 29.7071 60.8592 29.8498 60.928 30.0367L64.5589 38.6859C64.6081 38.8138 64.6327 38.9319 64.6327 39.0401C64.6327 39.3058 64.5442 39.5174 64.367 39.6748C64.1998 39.8322 64.0128 39.911 63.8062 39.911C63.6291 39.911 63.4667 39.8568 63.3191 39.7486C63.1814 39.6404 63.0731 39.4928 62.9944 39.3058L59.8211 31.9112L60.2491 31.8226ZM57.5186 37.5199L58.3303 35.8225H62.3155L62.5959 37.5199H57.5186ZM69.5281 31.7931C70.2169 31.7931 70.8319 31.9702 71.3731 32.3245C71.9241 32.6689 72.357 33.1461 72.6719 33.7562C72.9966 34.3662 73.159 35.0747 73.159 35.8816C73.159 36.6884 72.9966 37.4018 72.6719 38.0217C72.357 38.6318 71.929 39.1139 71.3878 39.4682C70.8565 39.8126 70.2562 39.9848 69.5871 39.9848C69.1935 39.9848 68.8246 39.9208 68.4802 39.7929C68.1358 39.665 67.8307 39.5026 67.5651 39.3058C67.3092 39.109 67.1075 38.9122 66.9599 38.7154C66.8222 38.5088 66.7533 38.3366 66.7533 38.1988L67.2108 38.007V41.8888C67.2108 42.1446 67.1272 42.3561 66.9599 42.5234C66.7926 42.7005 66.5811 42.7891 66.3252 42.7891C66.0694 42.7891 65.8579 42.7055 65.6906 42.5382C65.5233 42.3709 65.4397 42.1544 65.4397 41.8888V32.8411C65.4397 32.5852 65.5233 32.3737 65.6906 32.2064C65.8579 32.0293 66.0694 31.9407 66.3252 31.9407C66.5811 31.9407 66.7926 32.0293 66.9599 32.2064C67.1272 32.3737 67.2108 32.5852 67.2108 32.8411V33.5643L66.9599 33.4315C66.9599 33.3035 67.0288 33.151 67.1665 32.9739C67.3043 32.7869 67.4913 32.6049 67.7274 32.4278C67.9636 32.2408 68.2342 32.0883 68.5392 31.9702C68.8541 31.8522 69.1837 31.7931 69.5281 31.7931ZM69.3067 33.4167C68.8738 33.4167 68.4949 33.5249 68.1702 33.7414C67.8455 33.9579 67.5897 34.2531 67.4027 34.627C67.2256 34.9911 67.137 35.4093 67.137 35.8816C67.137 36.344 67.2256 36.7671 67.4027 37.1509C67.5897 37.5248 67.8455 37.82 68.1702 38.0365C68.4949 38.253 68.8738 38.3612 69.3067 38.3612C69.7397 38.3612 70.1136 38.253 70.4284 38.0365C70.7532 37.82 71.0041 37.5248 71.1812 37.1509C71.3681 36.7671 71.4616 36.344 71.4616 35.8816C71.4616 35.4093 71.3681 34.9911 71.1812 34.627C71.0041 34.2531 70.7532 33.9579 70.4284 33.7414C70.1136 33.5249 69.7397 33.4167 69.3067 33.4167ZM78.501 31.7931C79.1897 31.7931 79.8047 31.9702 80.3459 32.3245C80.8969 32.6689 81.3299 33.1461 81.6448 33.7562C81.9695 34.3662 82.1318 35.0747 82.1318 35.8816C82.1318 36.6884 81.9695 37.4018 81.6448 38.0217C81.3299 38.6318 80.9019 39.1139 80.3607 39.4682C79.8293 39.8126 79.2291 39.9848 78.56 39.9848C78.1664 39.9848 77.7974 39.9208 77.453 39.7929C77.1086 39.665 76.8036 39.5026 76.5379 39.3058C76.2821 39.109 76.0804 38.9122 75.9328 38.7154C75.795 38.5088 75.7261 38.3366 75.7261 38.1988L76.1837 38.007V41.8888C76.1837 42.1446 76.1 42.3561 75.9328 42.5234C75.7655 42.7005 75.5539 42.7891 75.2981 42.7891C75.0423 42.7891 74.8307 42.7055 74.6634 42.5382C74.4962 42.3709 74.4125 42.1544 74.4125 41.8888V32.8411C74.4125 32.5852 74.4962 32.3737 74.6634 32.2064C74.8307 32.0293 75.0423 31.9407 75.2981 31.9407C75.5539 31.9407 75.7655 32.0293 75.9328 32.2064C76.1 32.3737 76.1837 32.5852 76.1837 32.8411V33.5643L75.9328 33.4315C75.9328 33.3035 76.0016 33.151 76.1394 32.9739C76.2772 32.7869 76.4641 32.6049 76.7003 32.4278C76.9364 32.2408 77.207 32.0883 77.5121 31.9702C77.8269 31.8522 78.1566 31.7931 78.501 31.7931ZM78.2796 33.4167C77.8466 33.4167 77.4678 33.5249 77.1431 33.7414C76.8183 33.9579 76.5625 34.2531 76.3756 34.627C76.1984 34.9911 76.1099 35.4093 76.1099 35.8816C76.1099 36.344 76.1984 36.7671 76.3756 37.1509C76.5625 37.5248 76.8183 37.82 77.1431 38.0365C77.4678 38.253 77.8466 38.3612 78.2796 38.3612C78.7125 38.3612 79.0864 38.253 79.4013 38.0365C79.726 37.82 79.9769 37.5248 80.154 37.1509C80.341 36.7671 80.4345 36.344 80.4345 35.8816C80.4345 35.4093 80.341 34.9911 80.154 34.627C79.9769 34.2531 79.726 33.9579 79.4013 33.7414C79.0864 33.5249 78.7125 33.4167 78.2796 33.4167ZM90.6955 39.9848C90.0067 39.9848 89.3868 39.9011 88.8357 39.7338C88.2847 39.5567 87.7583 39.2517 87.2564 38.8187C87.1285 38.7105 87.0301 38.5875 86.9613 38.4497C86.8924 38.312 86.8579 38.1742 86.8579 38.0365C86.8579 37.8102 86.9367 37.6134 87.0941 37.4461C87.2614 37.269 87.468 37.1804 87.714 37.1804C87.901 37.1804 88.0682 37.2395 88.2158 37.3575C88.5897 37.6626 88.9587 37.8938 89.3228 38.0512C89.6967 38.2087 90.1543 38.2874 90.6955 38.2874C91.0595 38.2874 91.3941 38.2333 91.6991 38.125C92.0041 38.007 92.2501 37.8544 92.4371 37.6675C92.6241 37.4707 92.7175 37.2493 92.7175 37.0033C92.7175 36.7081 92.629 36.4572 92.4519 36.2506C92.2747 36.0439 92.0041 35.8717 91.6401 35.734C91.276 35.5864 90.8135 35.4732 90.2527 35.3945C89.7213 35.3158 89.2539 35.1977 88.8505 35.0403C88.4471 34.873 88.1076 34.6663 87.8321 34.4204C87.5664 34.1645 87.3647 33.8693 87.2269 33.5348C87.0892 33.1904 87.0203 32.8066 87.0203 32.3835C87.0203 31.7439 87.1826 31.1978 87.5074 30.7452C87.8419 30.2926 88.2896 29.9482 88.8505 29.712C89.4114 29.4759 90.0313 29.3578 90.7102 29.3578C91.3498 29.3578 91.9402 29.4562 92.4814 29.653C93.0324 29.8399 93.4801 30.081 93.8245 30.3762C94.1099 30.6025 94.2525 30.8633 94.2525 31.1585C94.2525 31.3749 94.1689 31.5717 94.0016 31.7488C93.8343 31.926 93.6376 32.0145 93.4112 32.0145C93.2636 32.0145 93.1308 31.9702 93.0127 31.8817C92.8553 31.7439 92.6437 31.616 92.3781 31.4979C92.1124 31.37 91.8319 31.2667 91.5368 31.188C91.2416 31.0994 90.966 31.0551 90.7102 31.0551C90.2871 31.0551 89.9279 31.1093 89.6328 31.2175C89.3474 31.3257 89.1309 31.4733 88.9833 31.6603C88.8357 31.8472 88.7619 32.0637 88.7619 32.3097C88.7619 32.6049 88.8456 32.8509 89.0128 33.0477C89.19 33.2347 89.4409 33.3872 89.7656 33.5053C90.0903 33.6135 90.479 33.7119 90.9316 33.8004C91.522 33.9087 92.0386 34.0366 92.4814 34.1842C92.934 34.3318 93.3079 34.5237 93.6031 34.7598C93.8983 34.9861 94.1197 35.2764 94.2673 35.6306C94.4149 35.975 94.4887 36.3982 94.4887 36.9C94.4887 37.5396 94.3116 38.0906 93.9573 38.5531C93.6031 39.0155 93.1357 39.3698 92.5552 39.6158C91.9845 39.8618 91.3646 39.9848 90.6955 39.9848ZM95.8271 32.0883H99.3251C99.5613 32.0883 99.7581 32.167 99.9155 32.3245C100.073 32.4819 100.152 32.6787 100.152 32.9149C100.152 33.1412 100.073 33.3331 99.9155 33.4905C99.7581 33.6381 99.5613 33.7119 99.3251 33.7119H95.8271C95.5909 33.7119 95.3941 33.6332 95.2367 33.4757C95.0793 33.3183 95.0006 33.1215 95.0006 32.8853C95.0006 32.659 95.0793 32.4721 95.2367 32.3245C95.3941 32.167 95.5909 32.0883 95.8271 32.0883ZM97.4064 30.2434C97.6622 30.2434 97.8689 30.3319 98.0263 30.509C98.1936 30.6763 98.2772 30.8879 98.2772 31.1437V37.7118C98.2772 37.8495 98.3018 37.9627 98.351 38.0512C98.41 38.1398 98.4838 38.2038 98.5724 38.2431C98.6708 38.2825 98.7741 38.3022 98.8824 38.3022C99.0004 38.3022 99.1087 38.2825 99.2071 38.2431C99.3055 38.1939 99.4186 38.1693 99.5465 38.1693C99.6843 38.1693 99.8073 38.2333 99.9155 38.3612C100.034 38.4891 100.093 38.6662 100.093 38.8925C100.093 39.1681 99.9401 39.3944 99.6351 39.5715C99.3399 39.7486 99.0201 39.8372 98.6757 39.8372C98.4691 39.8372 98.2378 39.8224 97.982 39.7929C97.736 39.7535 97.4999 39.6699 97.2735 39.542C97.0571 39.4042 96.875 39.1976 96.7274 38.9221C96.5798 38.6465 96.506 38.2677 96.506 37.7856V31.1437C96.506 30.8879 96.5897 30.6763 96.757 30.509C96.9341 30.3319 97.1505 30.2434 97.4064 30.2434ZM109.071 35.8963C109.071 36.7032 108.889 37.4166 108.525 38.0365C108.171 38.6465 107.688 39.1238 107.078 39.4682C106.478 39.8126 105.804 39.9848 105.056 39.9848C104.308 39.9848 103.63 39.8126 103.019 39.4682C102.419 39.1238 101.937 38.6465 101.573 38.0365C101.219 37.4166 101.042 36.7032 101.042 35.8963C101.042 35.0895 101.219 34.381 101.573 33.7709C101.937 33.151 102.419 32.6689 103.019 32.3245C103.63 31.9702 104.308 31.7931 105.056 31.7931C105.804 31.7931 106.478 31.9702 107.078 32.3245C107.688 32.6689 108.171 33.151 108.525 33.7709C108.889 34.381 109.071 35.0895 109.071 35.8963ZM107.3 35.8963C107.3 35.3945 107.196 34.9615 106.99 34.5975C106.793 34.2236 106.522 33.9333 106.178 33.7266C105.843 33.52 105.47 33.4167 105.056 33.4167C104.643 33.4167 104.264 33.52 103.92 33.7266C103.585 33.9333 103.315 34.2236 103.108 34.5975C102.911 34.9615 102.813 35.3945 102.813 35.8963C102.813 36.3883 102.911 36.8213 103.108 37.1952C103.315 37.5592 103.585 37.8446 103.92 38.0512C104.264 38.2579 104.643 38.3612 105.056 38.3612C105.47 38.3612 105.843 38.2579 106.178 38.0512C106.522 37.8446 106.793 37.5592 106.99 37.1952C107.196 36.8213 107.3 36.3883 107.3 35.8963ZM111.211 39.8372C110.956 39.8372 110.744 39.7535 110.577 39.5862C110.409 39.4091 110.326 39.1927 110.326 38.9368V32.8411C110.326 32.5852 110.409 32.3737 110.577 32.2064C110.744 32.0293 110.956 31.9407 111.211 31.9407C111.467 31.9407 111.679 32.0293 111.846 32.2064C112.013 32.3737 112.097 32.5852 112.097 32.8411V34.2285L111.994 33.2396C112.102 33.0034 112.24 32.7968 112.407 32.6197C112.584 32.4327 112.781 32.2802 112.997 32.1621C113.214 32.0342 113.445 31.9407 113.691 31.8817C113.937 31.8226 114.183 31.7931 114.429 31.7931C114.724 31.7931 114.97 31.8768 115.167 32.044C115.374 32.2113 115.477 32.4081 115.477 32.6344C115.477 32.9591 115.393 33.1953 115.226 33.3429C115.059 33.4807 114.877 33.5495 114.68 33.5495C114.493 33.5495 114.321 33.5151 114.163 33.4462C114.016 33.3773 113.844 33.3429 113.647 33.3429C113.47 33.3429 113.288 33.3872 113.101 33.4757C112.924 33.5544 112.756 33.6824 112.599 33.8595C112.451 34.0366 112.328 34.258 112.23 34.5237C112.141 34.7795 112.097 35.0845 112.097 35.4388V38.9368C112.097 39.1927 112.013 39.4091 111.846 39.5862C111.679 39.7535 111.467 39.8372 111.211 39.8372ZM119.818 39.9848C118.982 39.9848 118.254 39.8126 117.634 39.4682C117.024 39.1139 116.551 38.6367 116.217 38.0365C115.892 37.4362 115.73 36.7573 115.73 35.9996C115.73 35.1141 115.907 34.3613 116.261 33.7414C116.625 33.1117 117.098 32.6295 117.678 32.295C118.259 31.9604 118.874 31.7931 119.523 31.7931C120.025 31.7931 120.497 31.8964 120.94 32.1031C121.393 32.3097 121.791 32.5951 122.136 32.9591C122.48 33.3134 122.751 33.7266 122.947 34.199C123.154 34.6713 123.257 35.1731 123.257 35.7044C123.247 35.9406 123.154 36.1325 122.977 36.2801C122.8 36.4277 122.593 36.5015 122.357 36.5015H116.719L116.276 35.0255H121.693L121.368 35.3207V34.9222C121.348 34.6368 121.245 34.381 121.058 34.1547C120.881 33.9284 120.655 33.7512 120.379 33.6233C120.113 33.4856 119.828 33.4167 119.523 33.4167C119.228 33.4167 118.952 33.4561 118.697 33.5348C118.441 33.6135 118.219 33.7463 118.032 33.9333C117.845 34.1202 117.698 34.3712 117.59 34.686C117.481 35.0009 117.427 35.3994 117.427 35.8816C117.427 36.4129 117.535 36.8655 117.752 37.2395C117.978 37.6035 118.264 37.884 118.608 38.0808C118.962 38.2677 119.336 38.3612 119.73 38.3612C120.094 38.3612 120.384 38.3317 120.601 38.2726C120.817 38.2136 120.989 38.1447 121.117 38.066C121.255 37.9774 121.378 37.9036 121.486 37.8446C121.663 37.756 121.831 37.7118 121.988 37.7118C122.204 37.7118 122.382 37.7856 122.519 37.9332C122.667 38.0808 122.741 38.253 122.741 38.4497C122.741 38.7154 122.603 38.9565 122.327 39.173C122.072 39.3894 121.712 39.5813 121.25 39.7486C120.788 39.906 120.31 39.9848 119.818 39.9848Z" fill="white"/>
</svg>
