<svg width="157" height="56" viewBox="0 0 157 56" fill="none" xmlns="http://www.w3.org/2000/svg">
<path d="M36.8623 30.3445C39.9739 28.6053 42.3534 27.2803 42.5568 27.1768C43.2076 26.8248 43.8787 25.8931 42.5568 25.1685C42.1297 24.9407 39.8315 23.6571 36.8623 22.0007L32.7744 26.183L36.8623 30.3445Z" fill="#FFD400"/>
<path d="M32.7745 26.1829L19.7178 39.5784C20.0228 39.6198 20.3686 39.537 20.7753 39.3092C21.6295 38.833 30.7 33.7813 36.8623 30.3444L32.7745 26.1829Z" fill="#FF3333"/>
<path d="M32.7745 26.1829L36.8624 22.0006C36.8624 22.0006 21.6906 13.5741 20.7754 13.0772C20.4297 12.8701 20.0432 12.808 19.6975 12.8701L32.7745 26.1829Z" fill="#48FF48"/>
<path d="M32.7744 26.1828L19.6974 12.8701C19.1686 12.9943 18.7212 13.4705 18.7212 14.4436C18.7212 15.9964 18.7212 36.7005 18.7212 38.0049C18.7212 38.8951 19.0669 39.537 19.7177 39.5991L32.7744 26.1828Z" fill="#3BCCFF"/>
<path d="M59.1034 23.9294C58.6298 23.9294 58.1901 23.8464 57.7842 23.6803C57.3845 23.5081 57.0309 23.2714 56.7234 22.97C56.422 22.6687 56.1853 22.3181 56.0131 21.9184C55.847 21.5125 55.764 21.0759 55.764 20.6085C55.764 20.1349 55.847 19.6983 56.0131 19.2986C56.1853 18.8927 56.422 18.539 56.7234 18.2377C57.0309 17.9364 57.3845 17.7027 57.7842 17.5366C58.1901 17.3706 58.6298 17.2875 59.1034 17.2875C59.417 17.2875 59.7184 17.3244 60.0074 17.3982C60.3026 17.4659 60.5701 17.5735 60.81 17.7211C60.8715 17.7519 60.9145 17.7949 60.9391 17.8503C60.9699 17.9056 60.9852 17.964 60.9852 18.0255C60.9852 18.1301 60.9483 18.2193 60.8745 18.293C60.8069 18.3668 60.7269 18.4037 60.6347 18.4037C60.5978 18.4037 60.5609 18.3976 60.524 18.3853C60.4932 18.373 60.4594 18.3607 60.4225 18.3484C60.2319 18.25 60.0259 18.1731 59.8045 18.1178C59.5831 18.0563 59.3494 18.0255 59.1034 18.0255C58.6175 18.0255 58.1809 18.1393 57.7935 18.3668C57.4122 18.5944 57.1108 18.9019 56.8894 19.2893C56.668 19.6768 56.5573 20.1165 56.5573 20.6085C56.5573 21.0943 56.668 21.534 56.8894 21.9276C57.1108 22.3151 57.4122 22.6226 57.7935 22.8501C58.1809 23.0776 58.6175 23.1914 59.1034 23.1914C59.3494 23.1914 59.6015 23.1576 59.8598 23.0899C60.1243 23.0223 60.3487 22.9362 60.5332 22.8317L60.4686 23.053V21.1066L60.6162 21.2358H59.2048C59.1003 21.2358 59.0111 21.2019 58.9373 21.1343C58.8697 21.0605 58.8359 20.9713 58.8359 20.8668C58.8359 20.7622 58.8697 20.6761 58.9373 20.6085C59.0111 20.5347 59.1003 20.4978 59.2048 20.4978H60.8838C60.9945 20.4978 61.0836 20.5347 61.1513 20.6085C61.2189 20.6823 61.2528 20.7714 61.2528 20.876V23.0069C61.2528 23.0807 61.2343 23.1453 61.1974 23.2006C61.1667 23.256 61.1236 23.3021 61.0683 23.339C60.7915 23.5174 60.484 23.6619 60.1458 23.7726C59.8137 23.8771 59.4662 23.9294 59.1034 23.9294ZM64.4659 23.9294C63.9739 23.9294 63.5434 23.8249 63.1744 23.6158C62.8054 23.4067 62.5164 23.1207 62.3073 22.7579C62.1043 22.3889 62.0028 21.9645 62.0028 21.4848C62.0028 20.9498 62.1074 20.4947 62.3165 20.1196C62.5317 19.7383 62.8085 19.4492 63.1467 19.2524C63.4911 19.0495 63.854 18.948 64.2352 18.948C64.5181 18.948 64.7918 19.0003 65.0563 19.1048C65.3207 19.2094 65.5544 19.3631 65.7573 19.5661C65.9603 19.7629 66.1233 20.0027 66.2463 20.2856C66.3693 20.5624 66.4338 20.8729 66.44 21.2173C66.44 21.3157 66.4031 21.3987 66.3293 21.4664C66.2555 21.534 66.1694 21.5679 66.071 21.5679H62.4272L62.2611 20.9313H65.8127L65.6651 21.0605V20.8575C65.6405 20.6054 65.5544 20.3902 65.4068 20.2118C65.2654 20.0273 65.0901 19.8859 64.881 19.7875C64.678 19.6891 64.4628 19.6399 64.2352 19.6399C64.0508 19.6399 63.8663 19.6737 63.6818 19.7413C63.5034 19.8028 63.3404 19.9074 63.1928 20.055C63.0514 20.1964 62.9346 20.3809 62.8423 20.6085C62.7562 20.836 62.7132 21.1097 62.7132 21.4295C62.7132 21.7862 62.7839 22.0998 62.9253 22.3704C63.0729 22.641 63.2759 22.8563 63.5342 23.0162C63.7925 23.1699 64.0938 23.2468 64.4382 23.2468C64.6534 23.2468 64.841 23.2191 65.0009 23.1637C65.1608 23.1084 65.2992 23.0407 65.416 22.9608C65.5329 22.8747 65.6313 22.7886 65.7112 22.7025C65.7912 22.6472 65.868 22.6195 65.9418 22.6195C66.0341 22.6195 66.1079 22.6502 66.1632 22.7117C66.2247 22.7732 66.2555 22.847 66.2555 22.9331C66.2555 23.0377 66.2063 23.1299 66.1079 23.2099C65.9357 23.4005 65.702 23.5696 65.4068 23.7172C65.1116 23.8587 64.798 23.9294 64.4659 23.9294ZM67.1802 19.0956H69.348C69.4464 19.0956 69.5264 19.1294 69.5879 19.1971C69.6555 19.2647 69.6893 19.3447 69.6893 19.4369C69.6893 19.5353 69.6555 19.6183 69.5879 19.686C69.5264 19.7475 69.4464 19.7782 69.348 19.7782H67.1802C67.0879 19.7782 67.008 19.7444 66.9404 19.6768C66.8727 19.6091 66.8389 19.5261 66.8389 19.4277C66.8389 19.3355 66.8727 19.2586 66.9404 19.1971C67.008 19.1294 67.0879 19.0956 67.1802 19.0956ZM68.1488 17.841C68.2533 17.841 68.3394 17.8779 68.4071 17.9517C68.4747 18.0194 68.5086 18.1055 68.5086 18.21V22.6656C68.5086 22.8132 68.5301 22.9239 68.5731 22.9977C68.6162 23.0715 68.6715 23.1238 68.7392 23.1545C68.813 23.1791 68.8837 23.1914 68.9514 23.1914C69.0129 23.1914 69.0651 23.1822 69.1082 23.1637C69.1574 23.1391 69.2127 23.1268 69.2742 23.1268C69.3357 23.1268 69.3911 23.1576 69.4403 23.2191C69.4956 23.2744 69.5233 23.3482 69.5233 23.4405C69.5233 23.5512 69.4587 23.6465 69.3296 23.7265C69.2004 23.8003 69.0559 23.8372 68.896 23.8372C68.8099 23.8372 68.7023 23.831 68.5731 23.8187C68.4501 23.8064 68.3271 23.7664 68.2041 23.6988C68.0812 23.6311 67.9766 23.5204 67.8905 23.3667C67.8106 23.2068 67.7706 22.9854 67.7706 22.7025V18.21C67.7706 18.1055 67.8075 18.0194 67.8813 17.9517C67.9551 17.8779 68.0443 17.841 68.1488 17.841ZM73.5976 23.4589C73.5976 23.5635 73.5607 23.6527 73.4869 23.7265C73.4193 23.8003 73.3332 23.8372 73.2286 23.8372C73.1179 23.8372 73.0288 23.8003 72.9611 23.7265C72.8935 23.6527 72.8597 23.5635 72.8597 23.4589V19.3631C72.8597 19.2586 72.8935 19.1725 72.9611 19.1048C73.0349 19.031 73.1241 18.9941 73.2286 18.9941C73.3332 18.9941 73.4193 19.031 73.4869 19.1048C73.5607 19.1725 73.5976 19.2586 73.5976 19.3631V23.4589ZM73.2286 18.3761C73.0749 18.3761 72.9611 18.3453 72.8873 18.2838C72.8135 18.2223 72.7766 18.127 72.7766 17.9979V17.8687C72.7766 17.7396 72.8166 17.6442 72.8965 17.5827C72.9765 17.5212 73.0903 17.4905 73.2379 17.4905C73.3855 17.4905 73.4962 17.5212 73.57 17.5827C73.6438 17.6442 73.6807 17.7396 73.6807 17.8687V17.9979C73.6807 18.127 73.6407 18.2223 73.5607 18.2838C73.4869 18.3453 73.3762 18.3761 73.2286 18.3761ZM74.5543 19.0956H76.7221C76.8205 19.0956 76.9005 19.1294 76.962 19.1971C77.0296 19.2647 77.0634 19.3447 77.0634 19.4369C77.0634 19.5353 77.0296 19.6183 76.962 19.686C76.9005 19.7475 76.8205 19.7782 76.7221 19.7782H74.5543C74.462 19.7782 74.3821 19.7444 74.3144 19.6768C74.2468 19.6091 74.213 19.5261 74.213 19.4277C74.213 19.3355 74.2468 19.2586 74.3144 19.1971C74.3821 19.1294 74.462 19.0956 74.5543 19.0956ZM75.5229 17.841C75.6274 17.841 75.7135 17.8779 75.7812 17.9517C75.8488 18.0194 75.8826 18.1055 75.8826 18.21V22.6656C75.8826 22.8132 75.9042 22.9239 75.9472 22.9977C75.9903 23.0715 76.0456 23.1238 76.1133 23.1545C76.1871 23.1791 76.2578 23.1914 76.3254 23.1914C76.3869 23.1914 76.4392 23.1822 76.4823 23.1637C76.5315 23.1391 76.5868 23.1268 76.6483 23.1268C76.7098 23.1268 76.7652 23.1576 76.8144 23.2191C76.8697 23.2744 76.8974 23.3482 76.8974 23.4405C76.8974 23.5512 76.8328 23.6465 76.7037 23.7265C76.5745 23.8003 76.43 23.8372 76.2701 23.8372C76.184 23.8372 76.0764 23.831 75.9472 23.8187C75.8242 23.8064 75.7012 23.7664 75.5782 23.6988C75.4552 23.6311 75.3507 23.5204 75.2646 23.3667C75.1846 23.2068 75.1447 22.9854 75.1447 22.7025V18.21C75.1447 18.1055 75.1816 18.0194 75.2554 17.9517C75.3292 17.8779 75.4183 17.841 75.5229 17.841ZM84.7908 21.4387C84.7908 21.9184 84.6832 22.3458 84.4679 22.721C84.2588 23.0961 83.9729 23.3913 83.61 23.6065C83.2533 23.8218 82.8505 23.9294 82.4016 23.9294C81.9526 23.9294 81.5467 23.8218 81.1839 23.6065C80.821 23.3913 80.532 23.0961 80.3168 22.721C80.1077 22.3458 80.0031 21.9184 80.0031 21.4387C80.0031 20.959 80.1077 20.5316 80.3168 20.1565C80.532 19.7813 80.821 19.4861 81.1839 19.2709C81.5467 19.0556 81.9526 18.948 82.4016 18.948C82.8505 18.948 83.2533 19.0556 83.61 19.2709C83.9729 19.4861 84.2588 19.7813 84.4679 20.1565C84.6832 20.5316 84.7908 20.959 84.7908 21.4387ZM84.0528 21.4387C84.0528 21.082 83.979 20.7684 83.8314 20.4978C83.69 20.2272 83.4932 20.015 83.241 19.8613C82.995 19.7075 82.7152 19.6306 82.4016 19.6306C82.0879 19.6306 81.805 19.7075 81.5529 19.8613C81.3069 20.015 81.1101 20.2272 80.9625 20.4978C80.8149 20.7684 80.7411 21.082 80.7411 21.4387C80.7411 21.7893 80.8149 22.0998 80.9625 22.3704C81.1101 22.641 81.3069 22.8563 81.5529 23.0162C81.805 23.1699 82.0879 23.2468 82.4016 23.2468C82.7152 23.2468 82.995 23.1699 83.241 23.0162C83.4932 22.8563 83.69 22.641 83.8314 22.3704C83.979 22.0998 84.0528 21.7893 84.0528 21.4387ZM88.0871 18.948C88.5053 18.948 88.8343 19.0341 89.0741 19.2063C89.314 19.3785 89.4831 19.6091 89.5815 19.8982C89.686 20.1872 89.7383 20.5101 89.7383 20.8668V23.4589C89.7383 23.5635 89.7014 23.6527 89.6276 23.7265C89.56 23.8003 89.4739 23.8372 89.3693 23.8372C89.2648 23.8372 89.1756 23.8003 89.1018 23.7265C89.0341 23.6527 89.0003 23.5635 89.0003 23.4589V20.8852C89.0003 20.6515 88.9634 20.4424 88.8896 20.2579C88.822 20.0673 88.7051 19.9166 88.5391 19.8059C88.3792 19.6891 88.1578 19.6306 87.8749 19.6306C87.6166 19.6306 87.3798 19.6891 87.1646 19.8059C86.9493 19.9166 86.7771 20.0673 86.648 20.2579C86.5189 20.4424 86.4543 20.6515 86.4543 20.8852V23.4589C86.4543 23.5635 86.4174 23.6527 86.3436 23.7265C86.2759 23.8003 86.1898 23.8372 86.0853 23.8372C85.9807 23.8372 85.8916 23.8003 85.8178 23.7265C85.7501 23.6527 85.7163 23.5635 85.7163 23.4589V19.4369C85.7163 19.3324 85.7501 19.2463 85.8178 19.1786C85.8916 19.1048 85.9807 19.0679 86.0853 19.0679C86.196 19.0679 86.2852 19.1048 86.3528 19.1786C86.4205 19.2463 86.4543 19.3324 86.4543 19.4369V20.0919L86.2698 20.2948C86.3005 20.1349 86.3713 19.975 86.482 19.8151C86.5926 19.6491 86.731 19.5015 86.8971 19.3724C87.0631 19.2432 87.2476 19.1417 87.4506 19.0679C87.6535 18.988 87.8657 18.948 88.0871 18.948Z" fill="white"/>
<path d="M61.3266 39.9848C60.5787 39.9848 59.8801 39.847 59.2307 39.5715C58.5812 39.296 58.0105 38.9171 57.5186 38.435C57.0266 37.943 56.6379 37.3772 56.3525 36.7376C56.077 36.098 55.9393 35.4093 55.9393 34.6713C55.9393 33.9333 56.077 33.2445 56.3525 32.6049C56.6379 31.9653 57.0266 31.4045 57.5186 30.9223C58.0105 30.4303 58.5812 30.0466 59.2307 29.771C59.8801 29.4955 60.5787 29.3578 61.3266 29.3578C61.789 29.3578 62.2367 29.407 62.6697 29.5054C63.1026 29.6038 63.5011 29.7514 63.8652 29.9482C64.0128 30.0269 64.1211 30.1351 64.1899 30.2729C64.2687 30.4008 64.308 30.5336 64.308 30.6714C64.308 30.9075 64.2293 31.1191 64.0719 31.3061C63.9144 31.493 63.7127 31.5865 63.4667 31.5865C63.388 31.5865 63.3044 31.5767 63.2158 31.557C63.1371 31.5373 63.0584 31.5078 62.9796 31.4684C62.7336 31.3602 62.4729 31.2765 62.1974 31.2175C61.9219 31.1585 61.6316 31.1289 61.3266 31.1289C60.687 31.1289 60.1015 31.2913 59.5701 31.616C59.0486 31.9309 58.6304 32.3589 58.3156 32.9001C58.0105 33.4315 57.858 34.0218 57.858 34.6713C57.858 35.3109 58.0105 35.9012 58.3156 36.4424C58.6304 36.9836 59.0486 37.4166 59.5701 37.7413C60.1015 38.0562 60.687 38.2136 61.3266 38.2136C61.6217 38.2136 61.9465 38.1841 62.3007 38.125C62.6549 38.066 62.9452 37.9873 63.1715 37.8889L63.0387 38.3317V35.8078L63.2896 36.0292H61.6513C61.3954 36.0292 61.179 35.9455 61.0018 35.7782C60.8346 35.611 60.7509 35.3994 60.7509 35.1436C60.7509 34.8877 60.8346 34.6762 61.0018 34.5089C61.179 34.3416 61.3954 34.258 61.6513 34.258H64.0719C64.3277 34.258 64.5392 34.3466 64.7065 34.5237C64.8738 34.6909 64.9574 34.9025 64.9574 35.1583V38.2874C64.9574 38.4842 64.9082 38.6465 64.8098 38.7745C64.7213 38.9024 64.618 39.0057 64.4999 39.0844C64.0473 39.3599 63.5503 39.5813 63.0092 39.7486C62.4778 39.906 61.9169 39.9848 61.3266 39.9848ZM73.9504 35.8963C73.9504 36.7032 73.7683 37.4166 73.4042 38.0365C73.05 38.6465 72.5679 39.1238 71.9578 39.4682C71.3576 39.8126 70.6835 39.9848 69.9357 39.9848C69.1879 39.9848 68.5089 39.8126 67.8989 39.4682C67.2987 39.1238 66.8165 38.6465 66.4524 38.0365C66.0982 37.4166 65.9211 36.7032 65.9211 35.8963C65.9211 35.0895 66.0982 34.381 66.4524 33.7709C66.8165 33.151 67.2987 32.6689 67.8989 32.3245C68.5089 31.9702 69.1879 31.7931 69.9357 31.7931C70.6835 31.7931 71.3576 31.9702 71.9578 32.3245C72.5679 32.6689 73.05 33.151 73.4042 33.7709C73.7683 34.381 73.9504 35.0895 73.9504 35.8963ZM72.1792 35.8963C72.1792 35.3945 72.0759 34.9615 71.8692 34.5975C71.6724 34.2236 71.4018 33.9333 71.0575 33.7266C70.7229 33.52 70.349 33.4167 69.9357 33.4167C69.5224 33.4167 69.1436 33.52 68.7992 33.7266C68.4647 33.9333 68.1941 34.2236 67.9874 34.5975C67.7906 34.9615 67.6922 35.3945 67.6922 35.8963C67.6922 36.3883 67.7906 36.8213 67.9874 37.1952C68.1941 37.5592 68.4647 37.8446 68.7992 38.0512C69.1436 38.2579 69.5224 38.3612 69.9357 38.3612C70.349 38.3612 70.7229 38.2579 71.0575 38.0512C71.4018 37.8446 71.6724 37.5592 71.8692 37.1952C72.0759 36.8213 72.1792 36.3883 72.1792 35.8963ZM82.8656 35.8963C82.8656 36.7032 82.6835 37.4166 82.3194 38.0365C81.9652 38.6465 81.4831 39.1238 80.873 39.4682C80.2728 39.8126 79.5987 39.9848 78.8509 39.9848C78.1031 39.9848 77.4241 39.8126 76.8141 39.4682C76.2139 39.1238 75.7317 38.6465 75.3676 38.0365C75.0134 37.4166 74.8363 36.7032 74.8363 35.8963C74.8363 35.0895 75.0134 34.381 75.3676 33.7709C75.7317 33.151 76.2139 32.6689 76.8141 32.3245C77.4241 31.9702 78.1031 31.7931 78.8509 31.7931C79.5987 31.7931 80.2728 31.9702 80.873 32.3245C81.4831 32.6689 81.9652 33.151 82.3194 33.7709C82.6835 34.381 82.8656 35.0895 82.8656 35.8963ZM81.0944 35.8963C81.0944 35.3945 80.9911 34.9615 80.7844 34.5975C80.5876 34.2236 80.317 33.9333 79.9727 33.7266C79.6381 33.52 79.2642 33.4167 78.8509 33.4167C78.4376 33.4167 78.0588 33.52 77.7144 33.7266C77.3799 33.9333 77.1093 34.2236 76.9026 34.5975C76.7058 34.9615 76.6074 35.3945 76.6074 35.8963C76.6074 36.3883 76.7058 36.8213 76.9026 37.1952C77.1093 37.5592 77.3799 37.8446 77.7144 38.0512C78.0588 38.2579 78.4376 38.3612 78.8509 38.3612C79.2642 38.3612 79.6381 38.2579 79.9727 38.0512C80.317 37.8446 80.5876 37.5592 80.7844 37.1952C80.9911 36.8213 81.0944 36.3883 81.0944 35.8963ZM87.3971 31.7931C87.8104 31.7931 88.1892 31.8571 88.5336 31.985C88.878 32.1129 89.1732 32.2753 89.4192 32.4721C89.675 32.6689 89.8718 32.8706 90.0096 33.0772C90.1572 33.274 90.231 33.4413 90.231 33.579L89.8472 33.7709V32.6935C89.8472 32.4376 89.9309 32.2261 90.0981 32.0588C90.2654 31.8817 90.477 31.7931 90.7328 31.7931C90.9886 31.7931 91.2002 31.8768 91.3675 32.044C91.5348 32.2113 91.6184 32.4278 91.6184 32.6935V39.2615C91.6184 40.1176 91.4314 40.8015 91.0575 41.3131C90.6935 41.8346 90.2113 42.2085 89.6111 42.4349C89.0109 42.671 88.3663 42.7891 87.6776 42.7891C87.4808 42.7891 87.2249 42.7645 86.9101 42.7153C86.5952 42.6661 86.2951 42.6071 86.0097 42.5382C85.7244 42.4693 85.5079 42.4053 85.3603 42.3463C85.0651 42.2184 84.8585 42.056 84.7404 41.8592C84.6321 41.6723 84.6125 41.4706 84.6813 41.2541C84.7699 40.9687 84.9126 40.7719 85.1094 40.6637C85.3062 40.5653 85.5128 40.5555 85.7293 40.6342C85.8277 40.6637 85.99 40.7227 86.2163 40.8113C86.4427 40.8999 86.6887 40.9786 86.9543 41.0475C87.2298 41.1262 87.4709 41.1655 87.6776 41.1655C88.4155 41.1655 88.9617 41.0179 89.3159 40.7227C89.6701 40.4275 89.8472 40.0192 89.8472 39.4977V38.2136L90.0243 38.3464C90.0243 38.4743 89.9555 38.6318 89.8177 38.8187C89.6898 38.9959 89.5078 39.173 89.2716 39.3501C89.0453 39.5272 88.7747 39.6797 88.4598 39.8076C88.1449 39.9257 87.8104 39.9848 87.4562 39.9848C86.7575 39.9848 86.1278 39.8126 85.5669 39.4682C85.0061 39.1139 84.5633 38.6318 84.2386 38.0217C83.9138 37.4018 83.7515 36.6933 83.7515 35.8963C83.7515 35.0895 83.9138 34.381 84.2386 33.7709C84.5633 33.151 85.0011 32.6689 85.5522 32.3245C86.1032 31.9702 86.7182 31.7931 87.3971 31.7931ZM87.6776 33.4167C87.2348 33.4167 86.8461 33.5249 86.5115 33.7414C86.177 33.9579 85.9162 34.2531 85.7293 34.627C85.5423 35.0009 85.4488 35.424 85.4488 35.8963C85.4488 36.3588 85.5423 36.777 85.7293 37.1509C85.9162 37.5248 86.177 37.82 86.5115 38.0365C86.8461 38.253 87.2348 38.3612 87.6776 38.3612C88.1302 38.3612 88.5238 38.253 88.8583 38.0365C89.1929 37.82 89.4536 37.5248 89.6406 37.1509C89.8276 36.777 89.921 36.3588 89.921 35.8963C89.921 35.424 89.8276 35.0009 89.6406 34.627C89.4536 34.2531 89.1929 33.9579 88.8583 33.7414C88.5238 33.5249 88.1302 33.4167 87.6776 33.4167ZM95.1562 38.9368C95.1562 39.1927 95.0677 39.4091 94.8905 39.5862C94.7233 39.7535 94.5117 39.8372 94.2559 39.8372C94.0099 39.8372 93.8033 39.7535 93.636 39.5862C93.4687 39.4091 93.3851 39.1927 93.3851 38.9368V29.8153C93.3851 29.5595 93.4687 29.3479 93.636 29.1807C93.8131 29.0035 94.0296 28.915 94.2854 28.915C94.5412 28.915 94.7479 29.0035 94.9053 29.1807C95.0726 29.3479 95.1562 29.5595 95.1562 29.8153V38.9368ZM100.496 39.9848C99.6594 39.9848 98.9312 39.8126 98.3113 39.4682C97.7013 39.1139 97.229 38.6367 96.8944 38.0365C96.5697 37.4362 96.4073 36.7573 96.4073 35.9996C96.4073 35.1141 96.5845 34.3613 96.9387 33.7414C97.3028 33.1117 97.7751 32.6295 98.3556 32.295C98.9362 31.9604 99.5512 31.7931 100.201 31.7931C100.702 31.7931 101.175 31.8964 101.618 32.1031C102.07 32.3097 102.469 32.5951 102.813 32.9591C103.157 33.3134 103.428 33.7266 103.625 34.199C103.831 34.6713 103.935 35.1731 103.935 35.7044C103.925 35.9406 103.831 36.1325 103.654 36.2801C103.477 36.4277 103.271 36.5015 103.034 36.5015H97.3962L96.9534 35.0255H102.37L102.046 35.3207V34.9222C102.026 34.6368 101.923 34.381 101.736 34.1547C101.558 33.9284 101.332 33.7512 101.057 33.6233C100.791 33.4856 100.506 33.4167 100.201 33.4167C99.9054 33.4167 99.6299 33.4561 99.374 33.5348C99.1182 33.6135 98.8968 33.7463 98.7099 33.9333C98.5229 34.1202 98.3753 34.3712 98.2671 34.686C98.1588 35.0009 98.1047 35.3994 98.1047 35.8816C98.1047 36.4129 98.2129 36.8655 98.4294 37.2395C98.6557 37.6035 98.9411 37.884 99.2855 38.0808C99.6397 38.2677 100.014 38.3612 100.407 38.3612C100.771 38.3612 101.062 38.3317 101.278 38.2726C101.495 38.2136 101.667 38.1447 101.795 38.066C101.932 37.9774 102.055 37.9036 102.164 37.8446C102.341 37.756 102.508 37.7118 102.665 37.7118C102.882 37.7118 103.059 37.7856 103.197 37.9332C103.344 38.0808 103.418 38.253 103.418 38.4497C103.418 38.7154 103.28 38.9565 103.005 39.173C102.749 39.3894 102.39 39.5813 101.927 39.7486C101.465 39.906 100.988 39.9848 100.496 39.9848ZM113.442 29.5054C113.953 29.5054 114.431 29.653 114.873 29.9482C115.326 30.2434 115.69 30.6419 115.966 31.1437C116.241 31.6455 116.379 32.2064 116.379 32.8263C116.379 33.4364 116.241 33.9923 115.966 34.4942C115.69 34.996 115.326 35.3994 114.873 35.7044C114.431 35.9996 113.953 36.1472 113.442 36.1472H110.726L110.874 35.8816V38.9368C110.874 39.1927 110.795 39.4091 110.637 39.5862C110.48 39.7535 110.273 39.8372 110.018 39.8372C109.772 39.8372 109.57 39.7535 109.412 39.5862C109.255 39.4091 109.176 39.1927 109.176 38.9368V30.4057C109.176 30.1499 109.26 29.9383 109.427 29.771C109.604 29.5939 109.821 29.5054 110.077 29.5054H113.442ZM113.442 34.4646C113.629 34.4646 113.811 34.3859 113.988 34.2285C114.165 34.071 114.313 33.8693 114.431 33.6233C114.549 33.3675 114.608 33.1018 114.608 32.8263C114.608 32.541 114.549 32.2753 114.431 32.0293C114.313 31.7833 114.165 31.5865 113.988 31.4389C113.811 31.2815 113.629 31.2027 113.442 31.2027H110.696L110.874 30.9371V34.7008L110.711 34.4646H113.442ZM119.545 38.9368C119.545 39.1927 119.457 39.4091 119.28 39.5862C119.113 39.7535 118.901 39.8372 118.645 39.8372C118.399 39.8372 118.192 39.7535 118.025 39.5862C117.858 39.4091 117.774 39.1927 117.774 38.9368V29.8153C117.774 29.5595 117.858 29.3479 118.025 29.1807C118.202 29.0035 118.419 28.915 118.675 28.915C118.93 28.915 119.137 29.0035 119.295 29.1807C119.462 29.3479 119.545 29.5595 119.545 29.8153V38.9368ZM127.774 31.7931C128.03 31.7931 128.242 31.8768 128.409 32.044C128.576 32.2113 128.66 32.4278 128.66 32.6935V38.9368C128.66 39.1927 128.576 39.4091 128.409 39.5862C128.242 39.7535 128.03 39.8372 127.774 39.8372C127.519 39.8372 127.307 39.7535 127.14 39.5862C126.973 39.4091 126.889 39.1927 126.889 38.9368V38.2136L127.214 38.3464C127.214 38.4743 127.145 38.6318 127.007 38.8187C126.869 38.9959 126.682 39.173 126.446 39.3501C126.21 39.5272 125.929 39.6797 125.605 39.8076C125.29 39.9257 124.946 39.9848 124.572 39.9848C123.893 39.9848 123.278 39.8126 122.727 39.4682C122.176 39.1139 121.738 38.6318 121.413 38.0217C121.098 37.4018 120.941 36.6933 120.941 35.8963C120.941 35.0895 121.098 34.381 121.413 33.7709C121.738 33.151 122.171 32.6689 122.712 32.3245C123.253 31.9702 123.853 31.7931 124.513 31.7931C124.936 31.7931 125.324 31.8571 125.679 31.985C126.033 32.1129 126.338 32.2753 126.594 32.4721C126.859 32.6689 127.061 32.8706 127.199 33.0772C127.346 33.274 127.42 33.4413 127.42 33.579L126.889 33.7709V32.6935C126.889 32.4376 126.973 32.2261 127.14 32.0588C127.307 31.8817 127.519 31.7931 127.774 31.7931ZM124.793 38.3612C125.226 38.3612 125.605 38.253 125.929 38.0365C126.254 37.82 126.505 37.5248 126.682 37.1509C126.869 36.777 126.963 36.3588 126.963 35.8963C126.963 35.424 126.869 35.0009 126.682 34.627C126.505 34.2531 126.254 33.9579 125.929 33.7414C125.605 33.5249 125.226 33.4167 124.793 33.4167C124.37 33.4167 123.996 33.5249 123.671 33.7414C123.347 33.9579 123.091 34.2531 122.904 34.627C122.727 35.0009 122.638 35.424 122.638 35.8963C122.638 36.3588 122.727 36.777 122.904 37.1509C123.091 37.5248 123.347 37.82 123.671 38.0365C123.996 38.253 124.37 38.3612 124.793 38.3612ZM136.142 31.9407C136.398 31.9407 136.61 32.0293 136.777 32.2064C136.944 32.3737 137.028 32.5852 137.028 32.8411V39.1139C137.028 40.0192 136.856 40.7375 136.511 41.2688C136.177 41.81 135.724 42.1987 135.153 42.4349C134.583 42.671 133.943 42.7891 133.234 42.7891C132.92 42.7891 132.585 42.7645 132.231 42.7153C131.877 42.6661 131.586 42.5923 131.36 42.4939C131.065 42.366 130.858 42.2036 130.74 42.0068C130.632 41.8199 130.612 41.6182 130.681 41.4017C130.77 41.1163 130.912 40.9195 131.109 40.8113C131.306 40.7129 131.513 40.7031 131.729 40.7818C131.886 40.831 132.093 40.9048 132.349 41.0032C132.605 41.1114 132.9 41.1655 133.234 41.1655C133.687 41.1655 134.061 41.1016 134.356 40.9737C134.661 40.8556 134.888 40.6489 135.035 40.3537C135.193 40.0684 135.271 39.6748 135.271 39.173V38.1841L135.581 38.5383C135.414 38.863 135.202 39.1336 134.947 39.3501C134.701 39.5567 134.405 39.7142 134.061 39.8224C133.717 39.9306 133.323 39.9848 132.88 39.9848C132.359 39.9848 131.901 39.8667 131.508 39.6305C131.124 39.3845 130.824 39.05 130.607 38.6269C130.391 38.1939 130.283 37.7019 130.283 37.1509V32.8411C130.283 32.5852 130.366 32.3737 130.533 32.2064C130.701 32.0293 130.912 31.9407 131.168 31.9407C131.424 31.9407 131.636 32.0293 131.803 32.2064C131.97 32.3737 132.054 32.5852 132.054 32.8411V36.6195C132.054 37.2591 132.191 37.7118 132.467 37.9774C132.752 38.2333 133.146 38.3612 133.648 38.3612C133.992 38.3612 134.282 38.2972 134.519 38.1693C134.755 38.0316 134.937 37.8348 135.065 37.5789C135.193 37.3133 135.257 36.9935 135.257 36.6195V32.8411C135.257 32.5852 135.34 32.3737 135.507 32.2064C135.675 32.0293 135.886 31.9407 136.142 31.9407Z" fill="white"/>
</svg>
